<?xml version="1.0" standalone="no"?><!DOCTYPE svg PUBLIC "-//W3C//DTD SVG 1.1//EN" "http://www.w3.org/Graphics/SVG/1.1/DTD/svg11.dtd"><svg t="1684058109023" class="icon" viewBox="0 0 1212 1024" version="1.1" xmlns="http://www.w3.org/2000/svg" p-id="964" xmlns:xlink="http://www.w3.org/1999/xlink" width="236.71875" height="200"><path d="M1024 0H188.785388a126.636225 126.636225 0 0 0-126.636225 126.636225v322.240487h110.855403v-89.619482a126.636225 126.636225 0 0 1 126.636225-126.636225h613.308981a126.636225 126.636225 0 0 1 126.636225 126.636225v89.619482h110.855403V126.636225a126.636225 126.636225 0 0 0-126.636225-126.636225z" fill="#3588FC" p-id="965"></path><path d="M391.403349 287.171994h430.173516a126.636225 126.636225 0 0 1 126.636225 126.636225v35.068493H264.767123v-35.068493a126.636225 126.636225 0 0 1 126.636226-126.636225z" fill="#FE9025" p-id="966"></path><path d="M0 507.324201m65.850837 0l1081.083714 0q65.850837 0 65.850837 65.850837l0 250.350076q0 65.850837-65.850837 65.850837l-1081.083714 0q-65.850837 0-65.850837-65.850837l0-250.350076q0-65.850837 65.850837-65.850837Z" fill="#3588FC" p-id="967"></path><path d="M83.385084 940.614916h174.173516v83.385084H83.385084zM960.097412 940.614916h174.173516v83.385084h-174.173516z" fill="#3588FC" p-id="968"></path></svg>